<svg width="68" height="68" viewBox="0 0 68 68" fill="none" xmlns="http://www.w3.org/2000/svg">
<path d="M38.8177 60.2351H29.182C27.9042 60.2351 26.6788 59.7275 25.7752 58.8239C24.8717 57.9204 24.3641 56.695 24.3641 55.4172C24.3641 49.7992 20.726 44.9633 16.7919 40.9528C15.6101 39.7481 14.5523 38.4165 13.6399 36.9764C11.0637 32.9103 9.76469 28.1656 9.91047 23.3542C10.1759 17.2486 12.7204 11.4643 17.0418 7.14293C21.3632 2.82154 27.1475 0.277025 33.2531 0.0115785C36.4788 -0.088468 39.6918 0.460678 42.7012 1.62641C45.7106 2.79214 48.4551 4.55069 50.7717 6.79764C53.0883 9.04459 54.9298 11.7341 56.1868 14.7066C57.4439 17.679 58.0908 20.8737 58.0893 24.101C58.0869 28.7861 56.7183 33.3689 54.1511 37.2881C53.2867 38.6077 52.2991 39.8329 51.2052 40.949C47.2728 44.9619 43.6356 49.7987 43.6356 55.4172C43.6356 56.695 43.128 57.9204 42.2245 58.8239C41.321 59.7275 40.0955 60.2351 38.8177 60.2351ZM33.3976 4.82946C28.5163 5.04725 23.8932 7.0841 20.4381 10.5392C16.983 13.9943 14.9461 18.6174 14.7283 23.4987C14.602 27.584 15.7777 31.6037 18.0857 34.9769C20.3937 38.3501 23.7144 40.9022 27.568 42.2644C28.0381 42.4287 28.4457 42.7347 28.7347 43.1402C29.0237 43.5457 29.18 44.0308 29.182 44.5288V50.5993C29.182 53.2602 31.339 55.4172 33.9999 55.4172C36.6607 55.4172 38.8177 53.2602 38.8177 50.5993V44.5288C38.8197 44.0308 38.976 43.5457 39.265 43.1402C39.5541 42.7347 39.9617 42.4287 40.4317 42.2644C44.7702 40.7336 48.4179 37.7013 50.7155 33.7155C53.0131 29.7298 53.8091 25.0535 52.9595 20.5321C52.1099 16.0106 49.6708 11.9422 46.0831 9.06234C42.4954 6.18244 37.9958 4.68102 33.3976 4.82946Z" fill="url(#paint0_linear_39_1203)"/>
<path d="M31.5911 53.0083C31.5911 46.4833 26.9884 40.987 22.6409 36.1213C22.0236 35.4304 21.4487 34.6979 20.9209 33.9272C18.3228 30.134 16.9979 25.6131 17.1375 21.0176C17.2799 16.2702 14.9495 12.6961 13.4329 17.1971C12.7661 19.1761 12.3885 21.2883 12.3196 23.4265C12.18 28.0221 13.5049 32.543 16.103 36.3362C16.6309 37.1068 17.2057 37.8393 17.823 38.5302C22.1706 43.3959 26.7732 48.8922 26.7732 55.4173C26.7732 56.0561 27.027 56.6689 27.4788 57.1206C27.9305 57.5724 28.5433 57.8262 29.1821 57.8262H38.8179C39.4568 57.8262 40.0695 57.5724 40.5213 57.1206C41.2601 56.3818 40.3798 55.4173 39.3349 55.4173H34C33.3611 55.4173 32.7484 55.1635 32.2967 54.7117C31.8449 54.2599 31.5911 53.6472 31.5911 53.0083Z" fill="url(#paint1_linear_39_1203)"/>
<path d="M41.2268 67.4619H26.7732C26.1343 67.4619 25.5216 67.2081 25.0698 66.7564C24.6181 66.3046 24.3643 65.6919 24.3643 65.053C24.3643 64.4141 24.6181 63.8014 25.0698 63.3496C25.5216 62.8978 26.1343 62.644 26.7732 62.644H41.2268C41.8657 62.644 42.4785 62.8978 42.9302 63.3496C43.382 63.8014 43.6358 64.4141 43.6358 65.053C43.6358 65.6919 43.382 66.3046 42.9302 66.7564C42.4785 67.2081 41.8657 67.4619 41.2268 67.4619Z" fill="url(#paint2_linear_39_1203)"/>
<path d="M45.6837 22.8242C45.4667 22.4771 45.1648 22.1909 44.8066 21.9928C44.4483 21.7947 44.0454 21.6912 43.6361 21.692C42.4842 21.692 41.8054 20.3994 42.4594 19.4512L43.3229 18.1991C43.5529 17.8436 43.6852 17.4337 43.7063 17.0108C43.7275 16.5878 43.6368 16.1668 43.4433 15.7901C43.2378 15.3817 42.9202 15.0403 42.5277 14.8057C42.1353 14.5711 41.6842 14.453 41.2271 14.4652H31.5914C31.1465 14.4666 30.7107 14.5911 30.3323 14.8249C29.9539 15.0588 29.6476 15.3929 29.4474 15.7901L22.2206 30.2438C22.0358 30.6105 21.9478 31.0184 21.965 31.4286C21.9822 31.8389 22.104 32.238 22.3188 32.588C22.5336 32.9379 22.8343 33.2272 23.1924 33.4282C23.5504 33.6293 23.9539 33.7355 24.3645 33.7367C28.3558 33.7367 31.5914 36.9723 31.5914 40.9636V43.3725C31.5766 43.9261 31.7529 44.4678 32.0908 44.9066C32.4286 45.3453 32.9073 45.6543 33.4462 45.7814C33.6302 45.8049 33.8164 45.8049 34.0003 45.7814C34.4452 45.7801 34.8809 45.6556 35.2594 45.4217C35.6378 45.1879 35.9441 44.8538 36.1443 44.4565L45.78 25.185C45.9681 24.8164 46.058 24.4055 46.0411 23.992C46.0243 23.5785 45.9011 23.1763 45.6837 22.8242Z" fill="url(#paint3_linear_39_1203)"/>
<path d="M7.50132 9.64733C7.18429 9.64916 6.87002 9.58839 6.57652 9.46851C6.28302 9.34863 6.01607 9.172 5.79098 8.94873L0.973097 4.13085C0.519485 3.67724 0.264648 3.06201 0.264648 2.42051C0.264648 2.10286 0.327212 1.78833 0.448768 1.49487C0.570324 1.20141 0.748491 0.934764 0.973097 0.710158C1.1977 0.485552 1.46435 0.307385 1.75781 0.185829C2.05127 0.0642729 2.3658 0.00170898 2.68344 0.00170898C3.32495 0.00170898 3.94018 0.256546 4.39379 0.710158L9.21167 5.52804C9.43746 5.75198 9.61667 6.01841 9.73897 6.31196C9.86127 6.60551 9.92423 6.92038 9.92423 7.23839C9.92423 7.55639 9.86127 7.87126 9.73897 8.16481C9.61667 8.45836 9.43746 8.72479 9.21167 8.94873C8.98658 9.172 8.71963 9.34863 8.42613 9.46851C8.13263 9.58839 7.81836 9.64916 7.50132 9.64733Z" fill="url(#paint4_linear_39_1203)"/>
<path d="M5.09229 26.5099H2.68335C2.04446 26.5099 1.43174 26.2561 0.979976 25.8043C0.528212 25.3526 0.274414 24.7398 0.274414 24.101C0.274414 23.4621 0.528212 22.8493 0.979976 22.3976C1.43174 21.9458 2.04446 21.692 2.68335 21.692H5.09229C5.73118 21.692 6.34391 21.9458 6.79567 22.3976C7.24744 22.8493 7.50123 23.4621 7.50123 24.101C7.50123 24.7398 7.24744 25.3526 6.79567 25.8043C6.34391 26.2561 5.73118 26.5099 5.09229 26.5099Z" fill="url(#paint5_linear_39_1203)"/>
<path d="M2.68365 45.7815C2.36662 45.7833 2.05234 45.7225 1.75884 45.6027C1.46534 45.4828 1.19839 45.3061 0.973302 45.0829C0.747516 44.8589 0.568305 44.5925 0.446006 44.299C0.323708 44.0054 0.260742 43.6905 0.260742 43.3725C0.260742 43.0545 0.323708 42.7397 0.446006 42.4461C0.568305 42.1526 0.747516 41.8861 0.973302 41.6622L5.79118 36.8443C6.24479 36.3907 6.86002 36.1359 7.50153 36.1359C8.14303 36.1359 8.75826 36.3907 9.21188 36.8443C9.66549 37.2979 9.92033 37.9132 9.92033 38.5547C9.92033 39.1962 9.66549 39.8114 9.21188 40.265L4.394 45.0829C4.16891 45.3061 3.90196 45.4828 3.60846 45.6027C3.31496 45.7225 3.00068 45.7833 2.68365 45.7815Z" fill="url(#paint6_linear_39_1203)"/>
<path d="M60.4981 9.64733C60.1811 9.64916 59.8668 9.58839 59.5733 9.46851C59.2798 9.34863 59.0128 9.172 58.7878 8.94873C58.562 8.72479 58.3828 8.45836 58.2605 8.16481C58.1382 7.87126 58.0752 7.55639 58.0752 7.23839C58.0752 6.92038 58.1382 6.60551 58.2605 6.31196C58.3828 6.01841 58.562 5.75198 58.7878 5.52804L63.6056 0.710158C64.0593 0.256546 64.6745 0.00170898 65.316 0.00170898C65.9575 0.00170898 66.5727 0.256546 67.0263 0.710158C67.4799 1.16377 67.7348 1.779 67.7348 2.42051C67.7348 3.06201 67.4799 3.67724 67.0263 4.13085L62.2084 8.94873C61.9834 9.172 61.7164 9.34863 61.4229 9.46851C61.1294 9.58839 60.8151 9.64916 60.4981 9.64733Z" fill="url(#paint7_linear_39_1203)"/>
<path d="M65.3159 26.5099H62.907C62.2681 26.5099 61.6554 26.2561 61.2036 25.8043C60.7518 25.3526 60.498 24.7398 60.498 24.101C60.498 23.4621 60.7518 22.8493 61.2036 22.3976C61.6554 21.9458 62.2681 21.692 62.907 21.692H65.3159C65.9548 21.692 66.5675 21.9458 67.0193 22.3976C67.4711 22.8493 67.7249 23.4621 67.7249 24.101C67.7249 24.7398 67.4711 25.3526 67.0193 25.8043C66.5675 26.2561 65.9548 26.5099 65.3159 26.5099Z" fill="url(#paint8_linear_39_1203)"/>
<path d="M65.3158 45.7815C64.9987 45.7833 64.6845 45.7225 64.391 45.6027C64.0975 45.4828 63.8305 45.3061 63.6054 45.0829L58.7876 40.265C58.3339 39.8114 58.0791 39.1962 58.0791 38.5547C58.0791 37.9132 58.3339 37.2979 58.7876 36.8443C59.2412 36.3907 59.8564 36.1359 60.4979 36.1359C61.1394 36.1359 61.7546 36.3907 62.2082 36.8443L67.0261 41.6622C67.2519 41.8861 67.4311 42.1526 67.5534 42.4461C67.6757 42.7397 67.7387 43.0545 67.7387 43.3725C67.7387 43.6905 67.6757 44.0054 67.5534 44.299C67.4311 44.5925 67.2519 44.8589 67.0261 45.0829C66.801 45.3061 66.5341 45.4828 66.2406 45.6027C65.9471 45.7225 65.6328 45.7833 65.3158 45.7815Z" fill="url(#paint9_linear_39_1203)"/>
<defs>
<linearGradient id="paint0_linear_39_1203" x1="58.0893" y1="30.1175" x2="9.89941" y2="30.1175" gradientUnits="userSpaceOnUse">
<stop stop-color="#8B39EE"/>
<stop offset="0.458357" stop-color="#4D80F9"/>
<stop offset="1" stop-color="#8DE7AF"/>
</linearGradient>
<linearGradient id="paint1_linear_39_1203" x1="41.2269" y1="31.8096" x2="12.3096" y2="31.8096" gradientUnits="userSpaceOnUse">
<stop stop-color="#8B39EE"/>
<stop offset="0.458357" stop-color="#4D80F9"/>
<stop offset="1" stop-color="#8DE7AF"/>
</linearGradient>
<linearGradient id="paint2_linear_39_1203" x1="43.6358" y1="65.053" x2="24.3643" y2="65.053" gradientUnits="userSpaceOnUse">
<stop stop-color="#8B39EE"/>
<stop offset="0.458357" stop-color="#4D80F9"/>
<stop offset="1" stop-color="#8DE7AF"/>
</linearGradient>
<linearGradient id="paint3_linear_39_1203" x1="46.0431" y1="30.1317" x2="21.9629" y2="30.1317" gradientUnits="userSpaceOnUse">
<stop stop-color="#8B39EE"/>
<stop offset="0.458357" stop-color="#4D80F9"/>
<stop offset="1" stop-color="#8DE7AF"/>
</linearGradient>
<linearGradient id="paint4_linear_39_1203" x1="9.92423" y1="4.82454" x2="0.264648" y2="4.82454" gradientUnits="userSpaceOnUse">
<stop stop-color="#8B39EE"/>
<stop offset="0.458357" stop-color="#4D80F9"/>
<stop offset="1" stop-color="#8DE7AF"/>
</linearGradient>
<linearGradient id="paint5_linear_39_1203" x1="7.50123" y1="24.101" x2="0.274414" y2="24.101" gradientUnits="userSpaceOnUse">
<stop stop-color="#8B39EE"/>
<stop offset="0.458357" stop-color="#4D80F9"/>
<stop offset="1" stop-color="#8DE7AF"/>
</linearGradient>
<linearGradient id="paint6_linear_39_1203" x1="9.92033" y1="40.9587" x2="0.260742" y2="40.9587" gradientUnits="userSpaceOnUse">
<stop stop-color="#8B39EE"/>
<stop offset="0.458357" stop-color="#4D80F9"/>
<stop offset="1" stop-color="#8DE7AF"/>
</linearGradient>
<linearGradient id="paint7_linear_39_1203" x1="67.7348" y1="4.82454" x2="58.0752" y2="4.82454" gradientUnits="userSpaceOnUse">
<stop stop-color="#8B39EE"/>
<stop offset="0.458357" stop-color="#4D80F9"/>
<stop offset="1" stop-color="#8DE7AF"/>
</linearGradient>
<linearGradient id="paint8_linear_39_1203" x1="67.7249" y1="24.101" x2="60.498" y2="24.101" gradientUnits="userSpaceOnUse">
<stop stop-color="#8B39EE"/>
<stop offset="0.458357" stop-color="#4D80F9"/>
<stop offset="1" stop-color="#8DE7AF"/>
</linearGradient>
<linearGradient id="paint9_linear_39_1203" x1="67.7387" y1="40.9587" x2="58.0791" y2="40.9587" gradientUnits="userSpaceOnUse">
<stop stop-color="#8B39EE"/>
<stop offset="0.458357" stop-color="#4D80F9"/>
<stop offset="1" stop-color="#8DE7AF"/>
</linearGradient>
</defs>
</svg>
