<svg width="77" height="77" viewBox="0 0 77 77" fill="none" xmlns="http://www.w3.org/2000/svg">
<g filter="url(#filter0_d_40_2439)">
<path d="M65.0002 52.2706V45.6431H12V52.2706H28.5626V57.7915H24.1459V59.9998H52.8544V57.7915H48.4377V52.2706H65.0002Z" fill="url(#paint0_linear_40_2439)"/>
</g>
<g clip-path="url(#clip0_40_2439)" filter="url(#filter1_d_40_2439)">
<rect width="53.0002" height="36.4351" transform="translate(12 7)" fill="url(#paint1_linear_40_2439)"/>
<g filter="url(#filter2_d_40_2439)">
<path d="M12 7V43.4351H65.0002V7H12ZM38.5002 39.0186C23.5557 32.6652 25.3139 17.9867 25.3139 17.9867C34.9838 15.1386 38.5002 11.4143 38.5002 11.4143C38.5002 11.4143 42.0165 15.1386 51.6864 17.9867C51.6864 17.9867 53.4445 32.6652 38.5002 39.0186Z" fill="url(#paint2_linear_40_2439)"/>
</g>
</g>
<path d="M38.5003 18.2987C36.6888 19.4218 34.2099 20.7075 30.9297 21.9337C31.4052 25.0908 33.0743 29.7367 38.5003 32.8653C43.935 29.7324 45.601 25.0785 46.0743 21.9353C42.7919 20.7086 40.3129 19.4221 38.5003 18.2987Z" fill="black"/>
<defs>
<filter id="filter0_d_40_2439" x="0.67" y="39.0431" width="75.66" height="37.0167" filterUnits="userSpaceOnUse" color-interpolation-filters="sRGB">
<feFlood flood-opacity="0" result="BackgroundImageFix"/>
<feColorMatrix in="SourceAlpha" type="matrix" values="0 0 0 0 0 0 0 0 0 0 0 0 0 0 0 0 0 0 127 0" result="hardAlpha"/>
<feOffset dy="4.73"/>
<feGaussianBlur stdDeviation="5.665"/>
<feComposite in2="hardAlpha" operator="out"/>
<feColorMatrix type="matrix" values="0 0 0 0 1 0 0 0 0 1 0 0 0 0 1 0 0 0 0.18 0"/>
<feBlend mode="normal" in2="BackgroundImageFix" result="effect1_dropShadow_40_2439"/>
<feBlend mode="normal" in="SourceGraphic" in2="effect1_dropShadow_40_2439" result="shape"/>
</filter>
<filter id="filter1_d_40_2439" x="0.67" y="0.4" width="75.66" height="59.0951" filterUnits="userSpaceOnUse" color-interpolation-filters="sRGB">
<feFlood flood-opacity="0" result="BackgroundImageFix"/>
<feColorMatrix in="SourceAlpha" type="matrix" values="0 0 0 0 0 0 0 0 0 0 0 0 0 0 0 0 0 0 127 0" result="hardAlpha"/>
<feOffset dy="4.73"/>
<feGaussianBlur stdDeviation="5.665"/>
<feComposite in2="hardAlpha" operator="out"/>
<feColorMatrix type="matrix" values="0 0 0 0 1 0 0 0 0 1 0 0 0 0 1 0 0 0 0.18 0"/>
<feBlend mode="normal" in2="BackgroundImageFix" result="effect1_dropShadow_40_2439"/>
<feBlend mode="normal" in="SourceGraphic" in2="effect1_dropShadow_40_2439" result="shape"/>
</filter>
<filter id="filter2_d_40_2439" x="0.67" y="0.4" width="75.66" height="59.0951" filterUnits="userSpaceOnUse" color-interpolation-filters="sRGB">
<feFlood flood-opacity="0" result="BackgroundImageFix"/>
<feColorMatrix in="SourceAlpha" type="matrix" values="0 0 0 0 0 0 0 0 0 0 0 0 0 0 0 0 0 0 127 0" result="hardAlpha"/>
<feOffset dy="4.73"/>
<feGaussianBlur stdDeviation="5.665"/>
<feComposite in2="hardAlpha" operator="out"/>
<feColorMatrix type="matrix" values="0 0 0 0 1 0 0 0 0 1 0 0 0 0 1 0 0 0 0.18 0"/>
<feBlend mode="normal" in2="BackgroundImageFix" result="effect1_dropShadow_40_2439"/>
<feBlend mode="normal" in="SourceGraphic" in2="effect1_dropShadow_40_2439" result="shape"/>
</filter>
<linearGradient id="paint0_linear_40_2439" x1="65.0002" y1="52.8214" x2="12" y2="52.8214" gradientUnits="userSpaceOnUse">
<stop stop-color="#8B39EE"/>
<stop offset="0.458357" stop-color="#4D80F9"/>
<stop offset="1" stop-color="#8DE7AF"/>
</linearGradient>
<linearGradient id="paint1_linear_40_2439" x1="53.0002" y1="18.2176" x2="0" y2="18.2176" gradientUnits="userSpaceOnUse">
<stop stop-color="#8B39EE"/>
<stop offset="0.458357" stop-color="#4D80F9"/>
<stop offset="1" stop-color="#8DE7AF"/>
</linearGradient>
<linearGradient id="paint2_linear_40_2439" x1="65.0002" y1="25.2176" x2="12" y2="25.2176" gradientUnits="userSpaceOnUse">
<stop stop-color="#8B39EE"/>
<stop offset="0.458357" stop-color="#4D80F9"/>
<stop offset="1" stop-color="#8DE7AF"/>
</linearGradient>
<clipPath id="clip0_40_2439">
<rect width="53.0002" height="36.4351" fill="white" transform="translate(12 7)"/>
</clipPath>
</defs>
</svg>
