<svg width="81" height="81" viewBox="0 0 81 81" fill="none" xmlns="http://www.w3.org/2000/svg">
<g filter="url(#filter0_d_40_2460)">
<path d="M65.5566 19.9923C65.5566 17.4337 63.475 15.3522 60.9165 15.3522C58.3579 15.3522 56.2764 17.4337 56.2764 19.9923C56.2764 22.5508 58.3579 24.6324 60.9165 24.6324C63.475 24.6324 65.5566 22.5508 65.5566 19.9923ZM60.9165 22.7763C59.3815 22.7763 58.1324 21.5272 58.1324 19.9923C58.1324 18.4573 59.3815 17.2082 60.9165 17.2082C62.4514 17.2082 63.7005 18.4573 63.7005 19.9923C63.7005 21.5272 62.4514 22.7763 60.9165 22.7763Z" fill="url(#paint0_linear_40_2460)"/>
</g>
<g filter="url(#filter1_d_40_2460)">
<path d="M69.2688 29.2725C69.2688 26.714 67.1872 24.6324 64.6287 24.6324H60.9166H57.2045C54.646 24.6324 52.5645 26.714 52.5645 29.2725V41.3368H54.5875L53.2883 47.8329H56.2765V57.1131H65.5567V47.8329H68.5449L67.2457 41.3368H69.2688V29.2725ZM59.9886 55.2571H58.1326V53.401H59.9886V55.2571ZM59.9886 51.545H58.1326V47.8329H59.9886V51.545ZM63.7007 55.2571H61.8446V53.401H63.7007V55.2571ZM63.7007 51.545H61.8446V47.8329H63.7007V51.545ZM67.4128 39.4807H66.8745L65.5567 32.8927V29.2725H63.7007V32.9846L66.2806 45.9769H64.6287H63.7007H58.1326H57.2045H55.5527L58.1149 33.1665L58.1326 29.2725H56.2765V32.8927L54.9587 39.4807H54.4205V29.2725C54.4205 27.7376 55.6696 26.4885 57.2045 26.4885H64.6287C66.1636 26.4885 67.4128 27.7376 67.4128 29.2725V39.4807Z" fill="url(#paint1_linear_40_2460)"/>
</g>
<g filter="url(#filter2_d_40_2460)">
<path d="M24.7235 19.9923C24.7235 17.4337 22.642 15.3522 20.0835 15.3522C17.5249 15.3522 15.4434 17.4337 15.4434 19.9923C15.4434 22.5508 17.5249 24.6324 20.0835 24.6324C22.642 24.6324 24.7235 22.5508 24.7235 19.9923ZM20.0835 22.7763C18.5485 22.7763 17.2994 21.5272 17.2994 19.9923C17.2994 18.4573 18.5485 17.2082 20.0835 17.2082C21.6184 17.2082 22.8675 18.4573 22.8675 19.9923C22.8675 21.5272 21.6184 22.7763 20.0835 22.7763Z" fill="url(#paint2_linear_40_2460)"/>
</g>
<g filter="url(#filter3_d_40_2460)">
<path d="M28.4358 29.2725C28.4358 26.714 26.3542 24.6324 23.7957 24.6324H20.0836H16.3715C13.813 24.6324 11.7314 26.714 11.7314 29.2725V41.3368H15.4435V57.1131H24.7237V41.3368H28.4358V29.2725ZM19.1556 55.2571H17.2996V53.401H19.1556V55.2571ZM22.8677 55.2571H21.0116V53.401H22.8677V55.2571ZM22.8677 39.4807V40.4088V51.545H21.0116V42.2648H19.1556V51.545H17.2996V40.4088V39.4807V37.6247H22.8677V39.4807ZM26.5797 39.4807H24.7237V29.2725H22.8677V35.7687H17.2996V29.2725H15.4435V39.4807H13.5875V29.2725C13.5875 27.7376 14.8366 26.4885 16.3715 26.4885H23.7957C25.3306 26.4885 26.5797 27.7376 26.5797 29.2725V39.4807Z" fill="url(#paint3_linear_40_2460)"/>
</g>
<g filter="url(#filter4_d_40_2460)">
<path d="M50.7084 33.9126C50.7084 28.2841 46.1286 23.7043 40.5002 23.7043C34.8718 23.7043 30.292 28.2841 30.292 33.9126C30.292 36.9861 31.6385 39.825 34.0041 41.7747V42.2647H32.148V44.1208H34.0041V48.7609H46.9963V44.1208H48.8524V42.2647H46.9963V41.7747C49.3618 39.825 50.7084 36.9861 50.7084 33.9126ZM45.1403 46.9048H35.8601V44.1208H45.1403V46.9048ZM39.5722 33.9126C39.5722 33.4003 39.9879 32.9845 40.5002 32.9845C41.0125 32.9845 41.4282 33.4003 41.4282 33.9126C41.4282 34.4248 41.0125 34.8406 40.5002 34.8406C39.9879 34.8406 39.5722 34.4248 39.5722 33.9126ZM45.5096 40.5831L45.1403 40.8606V42.2647H41.4282V36.5259C42.5056 36.1417 43.2843 35.1208 43.2843 33.9126C43.2843 32.3776 42.0351 31.1285 40.5002 31.1285C38.9653 31.1285 37.7161 32.3776 37.7161 33.9126C37.7161 35.1208 38.4947 36.1417 39.5722 36.5259V42.2647H35.8601V40.8606L35.4908 40.5822C33.3665 38.9851 32.148 36.5537 32.148 33.9126C32.148 29.3068 35.8944 25.5604 40.5002 25.5604C45.106 25.5604 48.8524 29.3068 48.8524 33.9126C48.8524 36.5537 47.6339 38.9851 45.5096 40.5831Z" fill="url(#paint4_linear_40_2460)"/>
</g>
<g filter="url(#filter5_d_40_2460)">
<path d="M33.0758 16.888V17.2082H34.6358C35.277 18.564 36.36 19.647 37.7159 20.2883V21.8483H43.284V20.2883C44.6398 19.647 45.7228 18.564 46.3641 17.2082H47.9241V16.889C50.0808 17.7984 52.089 19.0874 53.7864 20.6716L55.0531 19.3139C53.0087 17.4059 50.5541 15.8904 47.9241 14.8909V11.6401H46.3641C45.7228 10.2843 44.6398 9.20126 43.284 8.56V7H37.7159V8.56C36.36 9.20126 35.277 10.2843 34.6358 11.6401H33.0758V14.8909C30.4458 15.8904 27.9912 17.4059 25.9458 19.313L27.2135 20.6706C28.9108 19.0865 30.92 17.7975 33.0758 16.888ZM34.9318 13.4961H35.9118L36.1299 12.8781C36.5995 11.5519 37.6277 10.5237 38.9538 10.0541L39.5719 9.83602V8.85604H41.4279V9.83602L42.046 10.0541C43.3721 10.5237 44.4004 11.5519 44.87 12.8781L45.088 13.4961H46.068V15.3522H45.088L44.87 15.9702C44.4004 17.2964 43.3721 18.3246 42.046 18.7942L41.4279 19.0123V19.9923H39.5719V19.0123L38.9538 18.7942C37.6277 18.3246 36.5995 17.2964 36.1299 15.9702L35.9118 15.3522H34.9318V13.4961Z" fill="url(#paint5_linear_40_2460)"/>
</g>
<g filter="url(#filter6_d_40_2460)">
<path d="M53.7874 50.8666C51.8135 52.7078 49.4721 54.1369 46.9748 55.0408C45.9577 52.4544 43.4428 50.6169 40.5 50.6169C37.5573 50.6169 35.0423 52.4544 34.0252 55.0408C31.527 54.1369 29.1865 52.7078 27.2126 50.8666L25.9478 52.2243C28.1518 54.2808 30.7781 55.864 33.5789 56.8495C33.5538 57.0889 33.5399 57.3321 33.5399 57.578C33.5399 61.4163 36.6617 64.5382 40.5 64.5382C44.3383 64.5382 47.4602 61.4163 47.4602 57.578C47.4602 57.3321 47.4462 57.0889 47.4212 56.8495C50.2219 55.864 52.8492 54.2808 55.0523 52.2243L53.7874 50.8666ZM40.5 62.6812C37.6863 62.6812 35.3959 60.3908 35.3959 57.5771C35.3959 54.7633 37.6863 52.473 40.5 52.473C43.3138 52.473 45.6041 54.7633 45.6041 57.5771C45.6041 60.3908 43.3138 62.6812 40.5 62.6812Z" fill="url(#paint6_linear_40_2460)"/>
</g>
<g filter="url(#filter7_d_40_2460)">
<path d="M40.5004 17.2082C42.0353 17.2082 43.2844 15.9591 43.2844 14.4242C43.2844 12.8892 42.0353 11.6401 40.5004 11.6401C38.9654 11.6401 37.7163 12.8892 37.7163 14.4242C37.7163 15.9591 38.9654 17.2082 40.5004 17.2082ZM40.5004 13.4962C41.0126 13.4962 41.4284 13.9119 41.4284 14.4242C41.4284 14.9365 41.0126 15.3522 40.5004 15.3522C39.9881 15.3522 39.5723 14.9365 39.5723 14.4242C39.5723 13.9119 39.9881 13.4962 40.5004 13.4962Z" fill="url(#paint7_linear_40_2460)"/>
</g>
<g filter="url(#filter8_d_40_2460)">
<path d="M41.4278 54.329H39.5718V58.4253L41.6997 60.5532L43.0119 59.241L41.4278 57.6569V54.329Z" fill="url(#paint8_linear_40_2460)"/>
</g>
<g filter="url(#filter9_d_40_2460)">
<path d="M51.6363 7H49.7803V8.85604H51.6363V7Z" fill="url(#paint9_linear_40_2460)"/>
</g>
<g filter="url(#filter10_d_40_2460)">
<path d="M55.3482 7H53.4922V8.85604H55.3482V7Z" fill="url(#paint10_linear_40_2460)"/>
</g>
<g filter="url(#filter11_d_40_2460)">
<path d="M59.0601 7H57.2041V8.85604H59.0601V7Z" fill="url(#paint11_linear_40_2460)"/>
</g>
<g filter="url(#filter12_d_40_2460)">
<path d="M24.7237 62.681H22.8677V64.5371H24.7237V62.681Z" fill="url(#paint12_linear_40_2460)"/>
</g>
<g filter="url(#filter13_d_40_2460)">
<path d="M28.4356 62.681H26.5796V64.5371H28.4356V62.681Z" fill="url(#paint13_linear_40_2460)"/>
</g>
<g filter="url(#filter14_d_40_2460)">
<path d="M30.292 63.609C30.292 64.1216 30.7075 64.5371 31.22 64.5371C31.7325 64.5371 32.148 64.1216 32.148 63.609C32.148 63.0965 31.7325 62.681 31.22 62.681C30.7075 62.681 30.292 63.0965 30.292 63.609Z" fill="url(#paint14_linear_40_2460)"/>
</g>
<defs>
<filter id="filter0_d_40_2460" x="44.9464" y="8.75217" width="31.9403" height="31.9402" filterUnits="userSpaceOnUse" color-interpolation-filters="sRGB">
<feFlood flood-opacity="0" result="BackgroundImageFix"/>
<feColorMatrix in="SourceAlpha" type="matrix" values="0 0 0 0 0 0 0 0 0 0 0 0 0 0 0 0 0 0 127 0" result="hardAlpha"/>
<feOffset dy="4.73"/>
<feGaussianBlur stdDeviation="5.665"/>
<feComposite in2="hardAlpha" operator="out"/>
<feColorMatrix type="matrix" values="0 0 0 0 1 0 0 0 0 1 0 0 0 0 1 0 0 0 0.18 0"/>
<feBlend mode="normal" in2="BackgroundImageFix" result="effect1_dropShadow_40_2460"/>
<feBlend mode="normal" in="SourceGraphic" in2="effect1_dropShadow_40_2460" result="shape"/>
</filter>
<filter id="filter1_d_40_2460" x="41.2345" y="18.0324" width="39.3641" height="55.1406" filterUnits="userSpaceOnUse" color-interpolation-filters="sRGB">
<feFlood flood-opacity="0" result="BackgroundImageFix"/>
<feColorMatrix in="SourceAlpha" type="matrix" values="0 0 0 0 0 0 0 0 0 0 0 0 0 0 0 0 0 0 127 0" result="hardAlpha"/>
<feOffset dy="4.73"/>
<feGaussianBlur stdDeviation="5.665"/>
<feComposite in2="hardAlpha" operator="out"/>
<feColorMatrix type="matrix" values="0 0 0 0 1 0 0 0 0 1 0 0 0 0 1 0 0 0 0.18 0"/>
<feBlend mode="normal" in2="BackgroundImageFix" result="effect1_dropShadow_40_2460"/>
<feBlend mode="normal" in="SourceGraphic" in2="effect1_dropShadow_40_2460" result="shape"/>
</filter>
<filter id="filter2_d_40_2460" x="4.11336" y="8.75217" width="31.9403" height="31.9402" filterUnits="userSpaceOnUse" color-interpolation-filters="sRGB">
<feFlood flood-opacity="0" result="BackgroundImageFix"/>
<feColorMatrix in="SourceAlpha" type="matrix" values="0 0 0 0 0 0 0 0 0 0 0 0 0 0 0 0 0 0 127 0" result="hardAlpha"/>
<feOffset dy="4.73"/>
<feGaussianBlur stdDeviation="5.665"/>
<feComposite in2="hardAlpha" operator="out"/>
<feColorMatrix type="matrix" values="0 0 0 0 1 0 0 0 0 1 0 0 0 0 1 0 0 0 0.18 0"/>
<feBlend mode="normal" in2="BackgroundImageFix" result="effect1_dropShadow_40_2460"/>
<feBlend mode="normal" in="SourceGraphic" in2="effect1_dropShadow_40_2460" result="shape"/>
</filter>
<filter id="filter3_d_40_2460" x="0.401445" y="18.0324" width="39.3641" height="55.1406" filterUnits="userSpaceOnUse" color-interpolation-filters="sRGB">
<feFlood flood-opacity="0" result="BackgroundImageFix"/>
<feColorMatrix in="SourceAlpha" type="matrix" values="0 0 0 0 0 0 0 0 0 0 0 0 0 0 0 0 0 0 127 0" result="hardAlpha"/>
<feOffset dy="4.73"/>
<feGaussianBlur stdDeviation="5.665"/>
<feComposite in2="hardAlpha" operator="out"/>
<feColorMatrix type="matrix" values="0 0 0 0 1 0 0 0 0 1 0 0 0 0 1 0 0 0 0.18 0"/>
<feBlend mode="normal" in2="BackgroundImageFix" result="effect1_dropShadow_40_2460"/>
<feBlend mode="normal" in="SourceGraphic" in2="effect1_dropShadow_40_2460" result="shape"/>
</filter>
<filter id="filter4_d_40_2460" x="18.962" y="17.1043" width="43.0765" height="47.7165" filterUnits="userSpaceOnUse" color-interpolation-filters="sRGB">
<feFlood flood-opacity="0" result="BackgroundImageFix"/>
<feColorMatrix in="SourceAlpha" type="matrix" values="0 0 0 0 0 0 0 0 0 0 0 0 0 0 0 0 0 0 127 0" result="hardAlpha"/>
<feOffset dy="4.73"/>
<feGaussianBlur stdDeviation="5.665"/>
<feComposite in2="hardAlpha" operator="out"/>
<feColorMatrix type="matrix" values="0 0 0 0 1 0 0 0 0 1 0 0 0 0 1 0 0 0 0.18 0"/>
<feBlend mode="normal" in2="BackgroundImageFix" result="effect1_dropShadow_40_2460"/>
<feBlend mode="normal" in="SourceGraphic" in2="effect1_dropShadow_40_2460" result="shape"/>
</filter>
<filter id="filter5_d_40_2460" x="14.6158" y="0.4" width="51.7674" height="37.5083" filterUnits="userSpaceOnUse" color-interpolation-filters="sRGB">
<feFlood flood-opacity="0" result="BackgroundImageFix"/>
<feColorMatrix in="SourceAlpha" type="matrix" values="0 0 0 0 0 0 0 0 0 0 0 0 0 0 0 0 0 0 127 0" result="hardAlpha"/>
<feOffset dy="4.73"/>
<feGaussianBlur stdDeviation="5.665"/>
<feComposite in2="hardAlpha" operator="out"/>
<feColorMatrix type="matrix" values="0 0 0 0 1 0 0 0 0 1 0 0 0 0 1 0 0 0 0.18 0"/>
<feBlend mode="normal" in2="BackgroundImageFix" result="effect1_dropShadow_40_2460"/>
<feBlend mode="normal" in="SourceGraphic" in2="effect1_dropShadow_40_2460" result="shape"/>
</filter>
<filter id="filter6_d_40_2460" x="14.6178" y="44.0169" width="51.7645" height="36.5813" filterUnits="userSpaceOnUse" color-interpolation-filters="sRGB">
<feFlood flood-opacity="0" result="BackgroundImageFix"/>
<feColorMatrix in="SourceAlpha" type="matrix" values="0 0 0 0 0 0 0 0 0 0 0 0 0 0 0 0 0 0 127 0" result="hardAlpha"/>
<feOffset dy="4.73"/>
<feGaussianBlur stdDeviation="5.665"/>
<feComposite in2="hardAlpha" operator="out"/>
<feColorMatrix type="matrix" values="0 0 0 0 1 0 0 0 0 1 0 0 0 0 1 0 0 0 0.18 0"/>
<feBlend mode="normal" in2="BackgroundImageFix" result="effect1_dropShadow_40_2460"/>
<feBlend mode="normal" in="SourceGraphic" in2="effect1_dropShadow_40_2460" result="shape"/>
</filter>
<filter id="filter7_d_40_2460" x="26.3863" y="5.04014" width="28.2279" height="28.2281" filterUnits="userSpaceOnUse" color-interpolation-filters="sRGB">
<feFlood flood-opacity="0" result="BackgroundImageFix"/>
<feColorMatrix in="SourceAlpha" type="matrix" values="0 0 0 0 0 0 0 0 0 0 0 0 0 0 0 0 0 0 127 0" result="hardAlpha"/>
<feOffset dy="4.73"/>
<feGaussianBlur stdDeviation="5.665"/>
<feComposite in2="hardAlpha" operator="out"/>
<feColorMatrix type="matrix" values="0 0 0 0 1 0 0 0 0 1 0 0 0 0 1 0 0 0 0.18 0"/>
<feBlend mode="normal" in2="BackgroundImageFix" result="effect1_dropShadow_40_2460"/>
<feBlend mode="normal" in="SourceGraphic" in2="effect1_dropShadow_40_2460" result="shape"/>
</filter>
<filter id="filter8_d_40_2460" x="28.2418" y="47.729" width="26.0999" height="28.8842" filterUnits="userSpaceOnUse" color-interpolation-filters="sRGB">
<feFlood flood-opacity="0" result="BackgroundImageFix"/>
<feColorMatrix in="SourceAlpha" type="matrix" values="0 0 0 0 0 0 0 0 0 0 0 0 0 0 0 0 0 0 127 0" result="hardAlpha"/>
<feOffset dy="4.73"/>
<feGaussianBlur stdDeviation="5.665"/>
<feComposite in2="hardAlpha" operator="out"/>
<feColorMatrix type="matrix" values="0 0 0 0 1 0 0 0 0 1 0 0 0 0 1 0 0 0 0.18 0"/>
<feBlend mode="normal" in2="BackgroundImageFix" result="effect1_dropShadow_40_2460"/>
<feBlend mode="normal" in="SourceGraphic" in2="effect1_dropShadow_40_2460" result="shape"/>
</filter>
<filter id="filter9_d_40_2460" x="38.4503" y="0.4" width="24.516" height="24.5161" filterUnits="userSpaceOnUse" color-interpolation-filters="sRGB">
<feFlood flood-opacity="0" result="BackgroundImageFix"/>
<feColorMatrix in="SourceAlpha" type="matrix" values="0 0 0 0 0 0 0 0 0 0 0 0 0 0 0 0 0 0 127 0" result="hardAlpha"/>
<feOffset dy="4.73"/>
<feGaussianBlur stdDeviation="5.665"/>
<feComposite in2="hardAlpha" operator="out"/>
<feColorMatrix type="matrix" values="0 0 0 0 1 0 0 0 0 1 0 0 0 0 1 0 0 0 0.18 0"/>
<feBlend mode="normal" in2="BackgroundImageFix" result="effect1_dropShadow_40_2460"/>
<feBlend mode="normal" in="SourceGraphic" in2="effect1_dropShadow_40_2460" result="shape"/>
</filter>
<filter id="filter10_d_40_2460" x="42.1622" y="0.4" width="24.516" height="24.5161" filterUnits="userSpaceOnUse" color-interpolation-filters="sRGB">
<feFlood flood-opacity="0" result="BackgroundImageFix"/>
<feColorMatrix in="SourceAlpha" type="matrix" values="0 0 0 0 0 0 0 0 0 0 0 0 0 0 0 0 0 0 127 0" result="hardAlpha"/>
<feOffset dy="4.73"/>
<feGaussianBlur stdDeviation="5.665"/>
<feComposite in2="hardAlpha" operator="out"/>
<feColorMatrix type="matrix" values="0 0 0 0 1 0 0 0 0 1 0 0 0 0 1 0 0 0 0.18 0"/>
<feBlend mode="normal" in2="BackgroundImageFix" result="effect1_dropShadow_40_2460"/>
<feBlend mode="normal" in="SourceGraphic" in2="effect1_dropShadow_40_2460" result="shape"/>
</filter>
<filter id="filter11_d_40_2460" x="45.8741" y="0.4" width="24.516" height="24.5161" filterUnits="userSpaceOnUse" color-interpolation-filters="sRGB">
<feFlood flood-opacity="0" result="BackgroundImageFix"/>
<feColorMatrix in="SourceAlpha" type="matrix" values="0 0 0 0 0 0 0 0 0 0 0 0 0 0 0 0 0 0 127 0" result="hardAlpha"/>
<feOffset dy="4.73"/>
<feGaussianBlur stdDeviation="5.665"/>
<feComposite in2="hardAlpha" operator="out"/>
<feColorMatrix type="matrix" values="0 0 0 0 1 0 0 0 0 1 0 0 0 0 1 0 0 0 0.18 0"/>
<feBlend mode="normal" in2="BackgroundImageFix" result="effect1_dropShadow_40_2460"/>
<feBlend mode="normal" in="SourceGraphic" in2="effect1_dropShadow_40_2460" result="shape"/>
</filter>
<filter id="filter12_d_40_2460" x="11.5377" y="56.081" width="24.516" height="24.5161" filterUnits="userSpaceOnUse" color-interpolation-filters="sRGB">
<feFlood flood-opacity="0" result="BackgroundImageFix"/>
<feColorMatrix in="SourceAlpha" type="matrix" values="0 0 0 0 0 0 0 0 0 0 0 0 0 0 0 0 0 0 127 0" result="hardAlpha"/>
<feOffset dy="4.73"/>
<feGaussianBlur stdDeviation="5.665"/>
<feComposite in2="hardAlpha" operator="out"/>
<feColorMatrix type="matrix" values="0 0 0 0 1 0 0 0 0 1 0 0 0 0 1 0 0 0 0.18 0"/>
<feBlend mode="normal" in2="BackgroundImageFix" result="effect1_dropShadow_40_2460"/>
<feBlend mode="normal" in="SourceGraphic" in2="effect1_dropShadow_40_2460" result="shape"/>
</filter>
<filter id="filter13_d_40_2460" x="15.2496" y="56.081" width="24.516" height="24.5161" filterUnits="userSpaceOnUse" color-interpolation-filters="sRGB">
<feFlood flood-opacity="0" result="BackgroundImageFix"/>
<feColorMatrix in="SourceAlpha" type="matrix" values="0 0 0 0 0 0 0 0 0 0 0 0 0 0 0 0 0 0 127 0" result="hardAlpha"/>
<feOffset dy="4.73"/>
<feGaussianBlur stdDeviation="5.665"/>
<feComposite in2="hardAlpha" operator="out"/>
<feColorMatrix type="matrix" values="0 0 0 0 1 0 0 0 0 1 0 0 0 0 1 0 0 0 0.18 0"/>
<feBlend mode="normal" in2="BackgroundImageFix" result="effect1_dropShadow_40_2460"/>
<feBlend mode="normal" in="SourceGraphic" in2="effect1_dropShadow_40_2460" result="shape"/>
</filter>
<filter id="filter14_d_40_2460" x="18.962" y="56.081" width="24.516" height="24.5161" filterUnits="userSpaceOnUse" color-interpolation-filters="sRGB">
<feFlood flood-opacity="0" result="BackgroundImageFix"/>
<feColorMatrix in="SourceAlpha" type="matrix" values="0 0 0 0 0 0 0 0 0 0 0 0 0 0 0 0 0 0 127 0" result="hardAlpha"/>
<feOffset dy="4.73"/>
<feGaussianBlur stdDeviation="5.665"/>
<feComposite in2="hardAlpha" operator="out"/>
<feColorMatrix type="matrix" values="0 0 0 0 1 0 0 0 0 1 0 0 0 0 1 0 0 0 0.18 0"/>
<feBlend mode="normal" in2="BackgroundImageFix" result="effect1_dropShadow_40_2460"/>
<feBlend mode="normal" in="SourceGraphic" in2="effect1_dropShadow_40_2460" result="shape"/>
</filter>
<linearGradient id="paint0_linear_40_2460" x1="65.5566" y1="19.9923" x2="56.2764" y2="19.9923" gradientUnits="userSpaceOnUse">
<stop stop-color="#8B39EE"/>
<stop offset="0.458357" stop-color="#4D80F9"/>
<stop offset="1" stop-color="#8DE7AF"/>
</linearGradient>
<linearGradient id="paint1_linear_40_2460" x1="69.2688" y1="40.8728" x2="52.5645" y2="40.8728" gradientUnits="userSpaceOnUse">
<stop stop-color="#8B39EE"/>
<stop offset="0.458357" stop-color="#4D80F9"/>
<stop offset="1" stop-color="#8DE7AF"/>
</linearGradient>
<linearGradient id="paint2_linear_40_2460" x1="24.7235" y1="19.9923" x2="15.4434" y2="19.9923" gradientUnits="userSpaceOnUse">
<stop stop-color="#8B39EE"/>
<stop offset="0.458357" stop-color="#4D80F9"/>
<stop offset="1" stop-color="#8DE7AF"/>
</linearGradient>
<linearGradient id="paint3_linear_40_2460" x1="28.4358" y1="40.8728" x2="11.7314" y2="40.8728" gradientUnits="userSpaceOnUse">
<stop stop-color="#8B39EE"/>
<stop offset="0.458357" stop-color="#4D80F9"/>
<stop offset="1" stop-color="#8DE7AF"/>
</linearGradient>
<linearGradient id="paint4_linear_40_2460" x1="50.7084" y1="36.2326" x2="30.292" y2="36.2326" gradientUnits="userSpaceOnUse">
<stop stop-color="#8B39EE"/>
<stop offset="0.458357" stop-color="#4D80F9"/>
<stop offset="1" stop-color="#8DE7AF"/>
</linearGradient>
<linearGradient id="paint5_linear_40_2460" x1="55.0531" y1="14.4242" x2="25.9458" y2="14.4242" gradientUnits="userSpaceOnUse">
<stop stop-color="#8B39EE"/>
<stop offset="0.458357" stop-color="#4D80F9"/>
<stop offset="1" stop-color="#8DE7AF"/>
</linearGradient>
<linearGradient id="paint6_linear_40_2460" x1="55.0523" y1="57.5775" x2="25.9478" y2="57.5775" gradientUnits="userSpaceOnUse">
<stop stop-color="#8B39EE"/>
<stop offset="0.458357" stop-color="#4D80F9"/>
<stop offset="1" stop-color="#8DE7AF"/>
</linearGradient>
<linearGradient id="paint7_linear_40_2460" x1="43.2844" y1="14.4242" x2="37.7163" y2="14.4242" gradientUnits="userSpaceOnUse">
<stop stop-color="#8B39EE"/>
<stop offset="0.458357" stop-color="#4D80F9"/>
<stop offset="1" stop-color="#8DE7AF"/>
</linearGradient>
<linearGradient id="paint8_linear_40_2460" x1="43.0119" y1="57.4411" x2="39.5718" y2="57.4411" gradientUnits="userSpaceOnUse">
<stop stop-color="#8B39EE"/>
<stop offset="0.458357" stop-color="#4D80F9"/>
<stop offset="1" stop-color="#8DE7AF"/>
</linearGradient>
<linearGradient id="paint9_linear_40_2460" x1="51.6363" y1="7.92802" x2="49.7803" y2="7.92802" gradientUnits="userSpaceOnUse">
<stop stop-color="#8B39EE"/>
<stop offset="0.458357" stop-color="#4D80F9"/>
<stop offset="1" stop-color="#8DE7AF"/>
</linearGradient>
<linearGradient id="paint10_linear_40_2460" x1="55.3482" y1="7.92802" x2="53.4922" y2="7.92802" gradientUnits="userSpaceOnUse">
<stop stop-color="#8B39EE"/>
<stop offset="0.458357" stop-color="#4D80F9"/>
<stop offset="1" stop-color="#8DE7AF"/>
</linearGradient>
<linearGradient id="paint11_linear_40_2460" x1="59.0601" y1="7.92802" x2="57.2041" y2="7.92802" gradientUnits="userSpaceOnUse">
<stop stop-color="#8B39EE"/>
<stop offset="0.458357" stop-color="#4D80F9"/>
<stop offset="1" stop-color="#8DE7AF"/>
</linearGradient>
<linearGradient id="paint12_linear_40_2460" x1="24.7237" y1="63.609" x2="22.8677" y2="63.609" gradientUnits="userSpaceOnUse">
<stop stop-color="#8B39EE"/>
<stop offset="0.458357" stop-color="#4D80F9"/>
<stop offset="1" stop-color="#8DE7AF"/>
</linearGradient>
<linearGradient id="paint13_linear_40_2460" x1="28.4356" y1="63.609" x2="26.5796" y2="63.609" gradientUnits="userSpaceOnUse">
<stop stop-color="#8B39EE"/>
<stop offset="0.458357" stop-color="#4D80F9"/>
<stop offset="1" stop-color="#8DE7AF"/>
</linearGradient>
<linearGradient id="paint14_linear_40_2460" x1="32.148" y1="63.609" x2="30.292" y2="63.609" gradientUnits="userSpaceOnUse">
<stop stop-color="#8B39EE"/>
<stop offset="0.458357" stop-color="#4D80F9"/>
<stop offset="1" stop-color="#8DE7AF"/>
</linearGradient>
</defs>
</svg>
