<svg width="67" height="78" viewBox="0 0 67 78" fill="none" xmlns="http://www.w3.org/2000/svg">
<g filter="url(#filter0_d_40_2479)">
<path d="M20.3172 61H12V41.9481C12 41.6778 12.0529 41.4102 12.1556 41.1608C12.2583 40.9114 12.4088 40.6852 12.5983 40.4953C12.7879 40.3053 13.0127 40.1555 13.2598 40.0544C13.5069 39.9532 13.7713 39.9029 14.0377 39.9062H20.3172V61ZM54.9751 41.9481C54.9751 41.4066 54.763 40.8872 54.3855 40.5043C54.0081 40.1214 53.4961 39.9062 52.9623 39.9062H46.6828V61H55L54.9751 41.9481ZM29.2 61H23.6441V23.3941C23.643 23.2515 23.6697 23.1102 23.7227 22.9782C23.7757 22.8462 23.854 22.7261 23.953 22.6249C24.0519 22.5237 24.1697 22.4434 24.2994 22.3886C24.4291 22.3338 24.5682 22.3056 24.7087 22.3056H26.8462V17.3781C26.8462 17.0872 26.9601 16.8082 27.1629 16.6025C27.3657 16.3968 27.6407 16.2812 27.9275 16.2812H31.7118V8.84781C31.7118 8.35774 31.9037 7.88774 32.2453 7.54121C32.5869 7.19468 33.0502 7 33.5333 7C34.0164 7 34.4797 7.19468 34.8212 7.54121C35.1628 7.88774 35.3547 8.35774 35.3547 8.84781V16.2812H39.1391C39.4141 16.2985 39.6724 16.4216 39.861 16.6254C40.0496 16.8293 40.1543 17.0985 40.1538 17.3781V22.3056H42.258C42.3985 22.3056 42.5377 22.3338 42.6674 22.3886C42.7971 22.4434 42.9148 22.5237 43.0138 22.6249C43.1127 22.7261 43.191 22.8462 43.244 22.9782C43.297 23.1102 43.3237 23.2515 43.3226 23.3941V61H37.8V52.3853H29.2V61ZM27.7279 30.2791C27.7234 30.4337 27.7496 30.5876 27.8049 30.7318C27.8601 30.876 27.9433 31.0074 28.0496 31.1183C28.1559 31.2293 28.283 31.3175 28.4234 31.3776C28.5639 31.4378 28.7148 31.4688 28.8673 31.4688H38.1327C38.4349 31.4688 38.7247 31.347 38.9384 31.1302C39.1521 30.9134 39.2721 30.6194 39.2721 30.3128V28.3722C39.2635 28.0715 39.1396 27.7861 38.9269 27.5765C38.7141 27.367 38.4292 27.2499 38.1327 27.25H28.8673C28.5651 27.25 28.2753 27.3718 28.0616 27.5886C27.8479 27.8053 27.7279 28.0994 27.7279 28.4059V30.2791ZM27.7279 38.0753C27.7279 38.3819 27.8479 38.6759 28.0616 38.8927C28.2753 39.1095 28.5651 39.2313 28.8673 39.2313H38.1327C38.4349 39.2313 38.7247 39.1095 38.9384 38.8927C39.1521 38.6759 39.2721 38.3819 39.2721 38.0753V36.1684C39.2721 35.8619 39.1521 35.5678 38.9384 35.3511C38.7247 35.1343 38.4349 35.0125 38.1327 35.0125H28.8673C28.5651 35.0125 28.2753 35.1343 28.0616 35.3511C27.8479 35.5678 27.7279 35.8619 27.7279 36.1684V38.0753ZM28.8673 47.0275H38.1327C38.4335 47.0275 38.722 46.9069 38.9355 46.6919C39.1489 46.477 39.27 46.1851 39.2721 45.88V43.9647C39.2721 43.6581 39.1521 43.3641 38.9384 43.1473C38.7247 42.9305 38.4349 42.8088 38.1327 42.8088H28.8673C28.5651 42.8088 28.2753 42.9305 28.0616 43.1473C27.8479 43.3641 27.7279 43.6581 27.7279 43.9647V45.88C27.7301 46.1851 27.8511 46.477 28.0645 46.6919C28.278 46.9069 28.5665 47.0275 28.8673 47.0275Z" fill="url(#paint0_linear_40_2479)"/>
</g>
<defs>
<filter id="filter0_d_40_2479" x="0.67" y="0.4" width="65.66" height="76.66" filterUnits="userSpaceOnUse" color-interpolation-filters="sRGB">
<feFlood flood-opacity="0" result="BackgroundImageFix"/>
<feColorMatrix in="SourceAlpha" type="matrix" values="0 0 0 0 0 0 0 0 0 0 0 0 0 0 0 0 0 0 127 0" result="hardAlpha"/>
<feOffset dy="4.73"/>
<feGaussianBlur stdDeviation="5.665"/>
<feComposite in2="hardAlpha" operator="out"/>
<feColorMatrix type="matrix" values="0 0 0 0 1 0 0 0 0 1 0 0 0 0 1 0 0 0 0.18 0"/>
<feBlend mode="normal" in2="BackgroundImageFix" result="effect1_dropShadow_40_2479"/>
<feBlend mode="normal" in="SourceGraphic" in2="effect1_dropShadow_40_2479" result="shape"/>
</filter>
<linearGradient id="paint0_linear_40_2479" x1="55" y1="34" x2="12" y2="34" gradientUnits="userSpaceOnUse">
<stop stop-color="#8B39EE"/>
<stop offset="0.458357" stop-color="#4D80F9"/>
<stop offset="1" stop-color="#8DE7AF"/>
</linearGradient>
</defs>
</svg>
